<?xml version="1.0" encoding="utf-8"?>
<!-- Generator: Adobe Illustrator 16.0.0, SVG Export Plug-In . SVG Version: 6.00 Build 0)  -->
<!DOCTYPE svg PUBLIC "-//W3C//DTD SVG 1.1//EN" "http://www.w3.org/Graphics/SVG/1.1/DTD/svg11.dtd">
<svg version="1.1" id="Layer_1" xmlns="http://www.w3.org/2000/svg" xmlns:xlink="http://www.w3.org/1999/xlink" x="0px" y="0px"
	 width="118.773px" height="101.516px" viewBox="0 0 118.773 101.516" enable-background="new 0 0 118.773 101.516"
	 xml:space="preserve">
<path fill="#C1272D" d="M113.481,16.99c-2.333-5.266-6.246-9.332-10.852-11.988c-4.614-2.673-9.906-4-15.271-4.002
	c-6.443,0.002-13.044,1.927-18.685,5.949c-3.015,2.148-5.718,4.925-7.951,8.258c-2.333-3.265-5.142-5.984-8.255-8.078
	c-5.852-3.939-12.644-5.82-19.279-5.826c-7.268,0.006-14.447,2.256-19.997,6.934c-2.767,2.332-5.095,5.285-6.703,8.772
	C4.876,20.49,3.997,24.486,4,28.824c0.004,4.275,0.96,8.481,2.518,12.559c2.742,7.129,7.31,13.925,12.557,20.263
	c7.874,9.491,17.343,17.925,24.875,24.059c7.529,6.126,13.124,9.921,13.21,9.983c1.685,1.145,3.878,1.145,5.567,0
	c0.133-0.096,13.044-8.848,26.131-21.338c6.55-6.252,13.148-13.433,18.238-21.096c2.54-3.834,4.71-7.794,6.274-11.871
	c1.559-4.077,2.517-8.283,2.519-12.559C115.889,24.486,115.041,20.488,113.481,16.99z"/>
</svg>
