<?xml version="1.0" encoding="utf-8"?>
<!-- Generator: Adobe Illustrator 16.0.0, SVG Export Plug-In . SVG Version: 6.00 Build 0)  -->
<!DOCTYPE svg PUBLIC "-//W3C//DTD SVG 1.1//EN" "http://www.w3.org/Graphics/SVG/1.1/DTD/svg11.dtd">
<svg version="1.1"
	 id="Layer_1" xmlns:svg="http://www.w3.org/2000/svg" xmlns:cc="http://creativecommons.org/ns#" xmlns:inkscape="http://www.inkscape.org/namespaces/inkscape" xmlns:sodipodi="http://sodipodi.sourceforge.net/DTD/sodipodi-0.dtd" xmlns:rdf="http://www.w3.org/1999/02/22-rdf-syntax-ns#" xmlns:dc="http://purl.org/dc/elements/1.1/" inkscape:version="0.48.4 r9939" sodipodi:docname="NYC_subway-4D.svg"
	 xmlns="http://www.w3.org/2000/svg" xmlns:xlink="http://www.w3.org/1999/xlink" x="0px" y="0px" width="1008.722px"
	 height="1059.353px" viewBox="0 0 1008.722 1059.353" enable-background="new 0 0 1008.722 1059.353" xml:space="preserve">
<sodipodi:namedview  showgrid="false" bordercolor="#666666" borderopacity="1" inkscape:cy="821.5" inkscape:cx="1227.6911" inkscape:zoom="2" guidetolerance="10" gridtolerance="10" objecttolerance="10" id="namedview24492" pagecolor="#ffffff" inkscape:window-maximized="1" inkscape:window-height="715" inkscape:current-layer="Layer_1" inkscape:window-y="-8" inkscape:window-x="-8" inkscape:pageopacity="0" inkscape:window-width="1360" inkscape:pageshadow="2">
	</sodipodi:namedview>
<rect id="rect4" y="-4.168" fill="#262622" width="1008.722" height="1063.521"/>
<g id="g6">
	<polygon id="polygon8" fill="none" stroke="#FFFFFF" stroke-miterlimit="10" points="287.127,515.891 287.127,270.764 
		276.122,259.757 232.606,259.757 220.448,247.6 81.382,108.533 56.179,108.533 41.591,123.121 41.591,459.798 161.534,726.547 
		176.93,741.942 262.047,741.942 282.779,721.21 282.779,678.218 320.395,640.603 320.396,549.159 	"/>
	<polygon id="polygon10" fill="none" stroke="#FFFFFF" stroke-miterlimit="10" points="561.861,8.438 561.861,68.683 486.544,144 
		475.129,144 451.004,119.875 442.689,119.875 438.222,124.342 438.222,129.142 467.927,158.847 380.689,246.084 250.52,246.084 
		0.428,-4.008 561.699,-2.079 	"/>
	<polyline id="polyline12" fill="none" stroke="#FFFFFF" stroke-miterlimit="10" points="702.446,738.073 766.692,673.827 
		865.623,578.757 1039.212,578.757 1039.212,144.336 663.216,144.336 636.521,171.031 600.963,206.59 643.123,248.75 
		643.123,252.778 640.995,254.907 633.021,254.907 619.464,241.35 607.886,252.929 587.3,232.342 571.675,232.342 527.022,276.995 
		352.601,276.995 319.383,310.213 319.382,490.744 423.634,490.744 423.589,497.112 319.383,497.112 319.383,512.986 
		345.285,538.889 345.285,656.81 309.277,692.816 309.277,828.333 314.275,833.33 362.931,833.33 362.931,798.595 370.649,798.595 
		370.649,833.33 374.165,833.33 379.115,838.281 379.115,975.378 425.11,1021.373 528.353,1021.373 534.093,1015.633 
		542.109,1015.633 546.17,1019.694 546.17,1024.853 542.981,1028.042 540.33,1030.693 540.33,1033.542 544.516,1037.727 
		549.759,1037.727 656.622,930.865 656.622,922.048 653.414,918.84 646.052,918.84 641.192,923.699 635.554,929.337 
		629.166,929.337 620.507,920.679 620.507,913.163 702.446,831.224 702.446,738.073 	"/>
	<polygon id="polygon14" fill="none" stroke="#FFFFFF" stroke-miterlimit="10" points="991.836,579.657 991.836,627.743 
		820.306,799.274 815.172,799.274 803.883,787.985 803.883,784.945 946.088,642.741 946.088,591.236 923.668,568.816 
		989.334,568.816 	"/>
	<polygon id="polygon16" fill="none" stroke="#FFFFFF" stroke-miterlimit="10" points="298.524,431.533 298.524,389.761 
		300.081,388.205 301.174,388.205 302.658,389.688 302.658,431.533 301.138,433.052 299.189,433.052 	"/>
	<polyline id="polyline18" fill="none" stroke="#FFFFFF" stroke-miterlimit="10" points="66.706,849.905 168.636,849.905 
		210.389,891.658 210.389,910.694 94.168,1026.915 74.845,1046.058 48.333,1046.058 32.208,1046.058 32.208,946.29 70.803,946.29 
		70.803,941.08 32.208,941.08 32.208,884.402 66.706,849.905 	"/>
	<polygon id="polygon20" fill="none" stroke="#FFFFFF" stroke-miterlimit="10" points="905.374,655.155 887.496,637.277 
		887.496,633.783 898.423,622.856 901.064,622.856 908.103,629.894 908.103,652.427 	"/>
</g>
<g id="flowRoot28861">
</g>
<g id="g6473_1_" transform="translate(-30,38)">
	<path id="path6475_1_" inkscape:connector-curvature="0" fill="#969696" d="M455.545,355.316l-0.945,1.053l-1.611-1.409
		c-0.82,0.465-1.734,0.666-2.603,0.666c-3.314,0-5.297-2.633-5.297-5.793s1.982-5.793,5.297-5.793c3.317,0,5.298,2.633,5.298,5.793
		c0,1.517-0.462,3.191-1.564,4.244L455.545,355.316L455.545,355.316z M450.511,352.807l0.927-1.071l1.348,1.177
		c0.697-0.834,0.959-1.967,0.959-3.083c0-2.122-0.991-4.213-3.361-4.213c-2.37,0-3.361,2.091-3.361,4.213
		c0,2.123,0.991,4.213,3.361,4.213c0.403,0,0.852-0.075,1.239-0.264L450.511,352.807z"/>
	<path id="path6477_1_" inkscape:connector-curvature="0" fill="#969696" d="M464.236,355.362h-1.735v-1.115h-0.03
		c-0.434,0.806-1.395,1.332-2.277,1.332c-2.091,0-2.99-1.053-2.99-3.142v-5.081h1.766v4.909c0,1.409,0.573,1.92,1.533,1.92
		c1.472,0,1.968-0.944,1.968-2.183v-4.647h1.766L464.236,355.362L464.236,355.362L464.236,355.362z"/>
	<path id="path6479_1_" inkscape:connector-curvature="0" fill="#969696" d="M467.476,351.815c0,1.255,0.681,2.37,2.152,2.37
		c1.026,0,1.643-0.449,1.953-1.332h1.672c-0.387,1.751-1.875,2.727-3.625,2.727c-2.509,0-3.918-1.75-3.918-4.213
		c0-2.277,1.49-4.229,3.874-4.229c2.525,0,4.075,2.277,3.781,4.678H467.476L467.476,351.815L467.476,351.815z M471.596,350.654
		c-0.062-1.115-0.821-2.122-2.014-2.122c-1.222,0-2.058,0.928-2.106,2.122H471.596z"/>
	<path id="path6481_1_" inkscape:connector-curvature="0" fill="#969696" d="M476.089,351.815c0,1.255,0.682,2.37,2.153,2.37
		c1.022,0,1.642-0.449,1.952-1.332h1.673c-0.387,1.751-1.875,2.727-3.625,2.727c-2.509,0-3.919-1.75-3.919-4.213
		c0-2.277,1.487-4.229,3.873-4.229c2.526,0,4.075,2.277,3.779,4.678H476.089L476.089,351.815z M480.209,350.654
		c-0.062-1.115-0.821-2.122-2.014-2.122c-1.224,0-2.058,0.928-2.106,2.122H480.209z"/>
	<path id="path6483_1_" inkscape:connector-curvature="0" fill="#969696" d="M483.324,347.354h1.673v1.178l0.031,0.03
		c0.524-0.883,1.44-1.427,2.493-1.427c1.735,0,2.834,0.929,2.834,2.726v5.501h-1.767v-5.035c-0.031-1.254-0.524-1.796-1.564-1.796
		c-1.178,0-1.937,0.928-1.937,2.106v4.725h-1.766v-8.009h0.003H483.324z"/>
	<path id="path6485_1_" inkscape:connector-curvature="0" fill="#969696" d="M493.549,352.792c0.09,1.022,0.865,1.394,1.812,1.394
		c0.666,0,1.828-0.139,1.781-1.053c-0.045-0.93-1.331-1.04-2.617-1.332c-1.301-0.279-2.572-0.744-2.572-2.37
		c0-1.75,1.89-2.292,3.346-2.292c1.642,0,3.128,0.682,3.346,2.463h-1.844c-0.153-0.836-0.851-1.068-1.626-1.068
		c-0.509,0-1.456,0.121-1.456,0.82c0,0.866,1.301,0.992,2.602,1.284c1.286,0.294,2.59,0.759,2.59,2.339
		c0,1.906-1.921,2.603-3.579,2.603c-2.013,0-3.516-0.896-3.547-2.786L493.549,352.792L493.549,352.792L493.549,352.792z"/>
</g>
<g id="g6487_1_">
	<path id="path6489_1_" fill="#969696" d="M410.763,615.739h5.375c1.982,0,3.284,0.898,3.284,2.742c0,1.115-0.573,1.921-1.58,2.354
		v0.031c1.348,0.294,2.076,1.347,2.076,2.85c0,1.735-1.208,3.083-4.074,3.083h-5.08V615.739z M412.7,620.37h3.159
		c0.928,0,1.624-0.54,1.624-1.533c0-1.115-0.573-1.518-1.624-1.518H412.7V620.37z M412.7,625.219h3.422
		c1.178,0,1.859-0.638,1.859-1.751c0-1.084-0.682-1.702-1.859-1.702H412.7V625.219z"/>
	<path id="path6491_1_" fill="#969696" d="M421.421,618.79h1.657v1.549h0.031c0.202-0.849,1.255-1.765,2.339-1.765
		c0.403,0,0.511,0.031,0.666,0.046v1.702c-0.248-0.03-0.511-0.076-0.759-0.076c-1.208,0-2.169,0.977-2.169,2.741v3.812h-1.767
		L421.421,618.79L421.421,618.79z"/>
	<path id="path6493_1_" fill="#969696" d="M426.225,622.787c0-2.448,1.472-4.213,4.043-4.213c2.572,0,4.042,1.765,4.042,4.213
		c0,2.462-1.472,4.229-4.042,4.229C427.696,627.016,426.225,625.25,426.225,622.787z M432.544,622.787
		c0-1.379-0.7-2.819-2.279-2.819c-1.579,0-2.277,1.443-2.277,2.819c0,1.394,0.699,2.834,2.277,2.834
		C431.847,625.622,432.544,624.181,432.544,622.787z"/>
	<path id="path6495_1_" fill="#969696" d="M435.411,622.787c0-2.448,1.472-4.213,4.043-4.213c2.571,0,4.042,1.765,4.042,4.213
		c0,2.462-1.472,4.229-4.042,4.229C436.883,627.016,435.411,625.25,435.411,622.787z M441.731,622.787
		c0-1.379-0.697-2.819-2.277-2.819c-1.58,0-2.277,1.443-2.277,2.819c0,1.394,0.697,2.834,2.277,2.834
		C441.034,625.622,441.731,624.181,441.731,622.787z"/>
	<path id="path6497_1_" fill="#969696" d="M445.016,615.739h1.768v6.289l3.191-3.238h2.168l-3.067,2.946l3.362,5.065h-2.154
		l-2.447-3.888l-1.053,1.023v2.865h-1.768V615.739z"/>
	<path id="path6499_1_" fill="#969696" d="M453.336,615.739h1.766v11.062h-1.766V615.739z"/>
	<path id="path6501_1_" fill="#969696" d="M456.14,618.79h1.936l2.089,5.98h0.032l2.028-5.98h1.843l-3.113,8.442
		c-0.573,1.443-0.992,2.741-2.833,2.741c-0.418,0-0.821-0.031-1.223-0.09v-1.49c0.279,0.047,0.557,0.109,0.836,0.109
		c0.818,0,1.022-0.435,1.236-1.116l0.202-0.62L456.14,618.79z"/>
	<path id="path6503_1_" fill="#969696" d="M465.063,618.79h1.67v1.178l0.031,0.031c0.527-0.883,1.441-1.425,2.494-1.425
		c1.735,0,2.833,0.928,2.833,2.726v5.499h-1.767v-5.034c-0.03-1.255-0.526-1.8-1.564-1.8c-1.177,0-1.936,0.93-1.936,2.107v4.722
		h-1.768v-8.007h0.003v0.001h0.001v0.002L465.063,618.79L465.063,618.79L465.063,618.79z"/>
</g>
<g id="g6505_1_">
	<g id="g6507_1_">
		<path id="path6509_1_" fill="#969696" d="M70.562,308.612h2.726l3.051,8.658h0.031l2.975-8.658h2.696v11.062h-1.845v-8.536h-0.03
			l-3.067,8.535h-1.595l-3.067-8.535h-0.031v8.535h-1.843V308.612L70.562,308.612z"/>
		<path id="path6511_1_" fill="#969696" d="M90.825,317.89c0,0.434,0.092,0.605,0.418,0.605c0.108,0,0.248,0,0.434-0.031v1.224
			c-0.265,0.093-0.821,0.201-1.115,0.201c-0.713,0-1.224-0.248-1.364-0.976c-0.696,0.682-1.828,0.976-2.772,0.976
			c-1.44,0-2.74-0.774-2.74-2.339c0-1.996,1.594-2.323,3.083-2.493c1.269-0.234,2.399-0.093,2.399-1.131
			c0-0.914-0.944-1.083-1.656-1.083c-0.993,0-1.688,0.402-1.768,1.267h-1.765c0.123-2.057,1.874-2.664,3.639-2.664
			c1.564,0,3.206,0.637,3.206,2.324v4.119L90.825,317.89L90.825,317.89z M89.058,315.659c-0.542,0.356-1.396,0.341-2.169,0.48
			c-0.759,0.124-1.441,0.402-1.441,1.332c0,0.79,1.007,1.024,1.626,1.024c0.774,0,1.982-0.402,1.982-1.517L89.058,315.659
			L89.058,315.659z"/>
		<path id="path6513_1_" fill="#969696" d="M92.731,311.663h1.673v1.178l0.03,0.028c0.525-0.881,1.441-1.426,2.494-1.426
			c1.734,0,2.834,0.929,2.834,2.727v5.499h-1.767v-5.033c-0.03-1.255-0.525-1.798-1.563-1.798c-1.177,0-1.937,0.928-1.937,2.106
			v4.725h-1.767v-8.009L92.731,311.663L92.731,311.663z"/>
		<path id="path6515_1_" fill="#969696" d="M101.624,308.612h1.768v4.106h0.031c0.432-0.728,1.347-1.27,2.399-1.27
			c1.734,0,2.834,0.929,2.834,2.726v5.499h-1.766v-5.035c-0.032-1.254-0.526-1.796-1.564-1.796c-1.177,0-1.937,0.927-1.937,2.105
			v4.724h-1.767L101.624,308.612L101.624,308.612z"/>
		<path id="path6517_1_" fill="#969696" d="M117.223,317.89c0,0.434,0.093,0.605,0.418,0.605c0.105,0,0.247,0,0.433-0.031v1.224
			c-0.266,0.093-0.821,0.201-1.115,0.201c-0.716,0-1.225-0.248-1.364-0.976c-0.697,0.682-1.828,0.976-2.773,0.976
			c-1.44,0-2.742-0.774-2.742-2.339c0-1.996,1.596-2.323,3.083-2.493c1.27-0.234,2.401-0.093,2.401-1.131
			c0-0.914-0.944-1.083-1.657-1.083c-0.992,0-1.686,0.402-1.767,1.267h-1.765c0.121-2.057,1.874-2.664,3.639-2.664
			c1.565,0,3.206,0.637,3.206,2.324v4.119L117.223,317.89L117.223,317.89z M115.458,315.659c-0.541,0.356-1.395,0.341-2.169,0.48
			c-0.759,0.124-1.44,0.402-1.44,1.332c0,0.79,1.006,1.024,1.625,1.024c0.775,0,1.98-0.402,1.98-1.517v-1.317L115.458,315.659
			L115.458,315.659z"/>
		<path id="path6519_1_" fill="#969696" d="M118.324,311.663h1.333v-2.4h1.765v2.4h1.596v1.315h-1.596v4.276
			c0,0.728,0.062,1.099,0.853,1.099c0.248,0,0.495,0,0.743-0.062v1.364c-0.387,0.031-0.759,0.093-1.146,0.093
			c-1.843,0-2.184-0.714-2.214-2.044v-4.725h-1.333V311.663z"/>
		<path id="path6521_1_" fill="#969696" d="M123.483,311.663h1.332v-2.4h1.767v2.4h1.596v1.315h-1.597v4.276
			c0,0.728,0.062,1.099,0.853,1.099c0.248,0,0.493,0,0.743-0.062v1.364c-0.387,0.031-0.759,0.093-1.146,0.093
			c-1.846,0-2.187-0.714-2.217-2.044v-4.725h-1.331V311.663z"/>
		<path id="path6523_1_" fill="#969696" d="M136.155,317.89c0,0.434,0.093,0.605,0.418,0.605c0.108,0,0.248,0,0.434-0.031v1.224
			c-0.266,0.093-0.821,0.201-1.115,0.201c-0.715,0-1.224-0.248-1.364-0.976c-0.696,0.682-1.828,0.976-2.773,0.976
			c-1.44,0-2.738-0.774-2.738-2.339c0-1.996,1.593-2.323,3.08-2.493c1.27-0.234,2.4-0.093,2.4-1.131
			c0-0.914-0.943-1.083-1.654-1.083c-0.993,0-1.688,0.402-1.768,1.267h-1.766c0.121-2.057,1.874-2.664,3.639-2.664
			c1.565,0,3.207,0.637,3.207,2.324v4.119L136.155,317.89L136.155,317.89z M134.388,315.659c-0.542,0.356-1.396,0.341-2.17,0.48
			c-0.759,0.124-1.44,0.402-1.44,1.332c0,0.79,1.006,1.024,1.626,1.024c0.775,0,1.98-0.402,1.98-1.517v-1.317L134.388,315.659
			L134.388,315.659z"/>
		<path id="path6525_1_" fill="#969696" d="M138.061,311.663h1.673v1.178l0.03,0.028c0.525-0.881,1.441-1.426,2.494-1.426
			c1.734,0,2.834,0.929,2.834,2.727v5.499h-1.768v-5.033c-0.03-1.255-0.524-1.798-1.564-1.798c-1.175,0-1.936,0.928-1.936,2.106
			v4.725h-1.766v-8.009L138.061,311.663L138.061,311.663z"/>
	</g>
</g>
<g id="g6527_1_">
	<path id="path6529_1_" fill="#969696" d="M101.414,35.828h8.953V37.5h-3.517v9.387h-1.935V37.5h-3.501V35.828L101.414,35.828z"/>
	<path id="path6531_1_" fill="#969696" d="M111.406,35.828h1.766v4.105h0.032c0.433-0.728,1.347-1.27,2.4-1.27
		c1.734,0,2.835,0.929,2.835,2.726v5.499h-1.766v-5.034c-0.031-1.255-0.526-1.797-1.564-1.797c-1.177,0-1.937,0.929-1.937,2.106
		v4.725h-1.766L111.406,35.828L111.406,35.828z"/>
	<path id="path6533_1_" fill="#969696" d="M121.677,43.341c0,1.254,0.682,2.37,2.153,2.37c1.022,0,1.642-0.45,1.952-1.333h1.672
		c-0.387,1.75-1.875,2.727-3.624,2.727c-2.509,0-3.919-1.751-3.919-4.214c0-2.277,1.487-4.229,3.873-4.229
		c2.526,0,4.075,2.277,3.779,4.678H121.677z M125.797,42.179c-0.062-1.115-0.821-2.122-2.013-2.122c-1.225,0-2.06,0.929-2.106,2.122
		H125.797z"/>
	<path id="path6535_1_" fill="#969696" d="M133.466,35.828h5.375c1.983,0,3.284,0.898,3.284,2.741c0,1.116-0.573,1.921-1.58,2.354
		v0.032c1.347,0.294,2.074,1.347,2.074,2.85c0,1.734-1.208,3.083-4.074,3.083h-5.08V35.828z M135.403,40.459h3.159
		c0.928,0,1.626-0.542,1.626-1.534c0-1.115-0.573-1.518-1.626-1.518h-3.159V40.459z M135.403,45.308h3.423
		c1.177,0,1.859-0.635,1.859-1.751c0-1.084-0.682-1.703-1.859-1.703h-3.423V45.308z"/>
	<path id="path6537_1_" fill="#969696" d="M144.125,38.879h1.655v1.549h0.031c0.202-0.853,1.255-1.767,2.339-1.767
		c0.403,0,0.511,0.032,0.668,0.047v1.704c-0.25-0.031-0.51-0.078-0.76-0.078c-1.207,0-2.169,0.976-2.169,2.742v3.811h-1.767
		L144.125,38.879L144.125,38.879z"/>
	<path id="path6539_1_" fill="#969696" d="M148.929,42.875c0-2.447,1.473-4.214,4.042-4.214c2.569,0,4.042,1.767,4.042,4.214
		c0,2.463-1.472,4.229-4.042,4.229S148.929,45.339,148.929,42.875z M155.248,42.875c0-1.379-0.698-2.819-2.277-2.819
		c-1.58,0-2.277,1.44-2.277,2.819c0,1.394,0.697,2.834,2.277,2.834C154.55,45.71,155.248,44.27,155.248,42.875z"/>
	<path id="path6541_1_" fill="#969696" d="M158.487,38.879h1.67v1.178l0.032,0.031c0.526-0.883,1.441-1.426,2.493-1.426
		c1.735,0,2.834,0.93,2.834,2.727v5.499h-1.767v-5.034c-0.031-1.255-0.527-1.797-1.564-1.797c-1.177,0-1.937,0.928-1.937,2.106
		v4.724h-1.768v-8.008H158.487L158.487,38.879z"/>
	<path id="path6543_1_" fill="#969696" d="M169.533,42.674l-2.773-3.795h2.139l1.67,2.463l1.751-2.463h2.043l-2.727,3.703
		l3.068,4.306h-2.122l-2.028-2.958l-1.965,2.958h-2.076L169.533,42.674z"/>
</g>
<g id="g6545_1_">
	<path id="path6547_1_" fill="#969696" d="M77.34,895.489c0,1.703,1.255,2.368,2.804,2.368c1.704,0,2.339-0.833,2.339-1.67
		c0-0.852-0.465-1.192-0.913-1.364c-0.775-0.294-1.782-0.496-3.3-0.912c-1.89-0.511-2.447-1.657-2.447-2.803
		c0-2.216,2.045-3.252,4.042-3.252c2.308,0,4.244,1.222,4.244,3.53h-1.936c-0.093-1.425-1.054-1.952-2.385-1.952
		c-0.898,0-2.03,0.327-2.03,1.442c0,0.774,0.527,1.207,1.317,1.426c0.171,0.045,2.618,0.681,3.191,0.851
		c1.456,0.435,2.153,1.672,2.153,2.817c0,2.478-2.2,3.47-4.399,3.47c-2.525,0-4.569-1.206-4.615-3.949L77.34,895.489L77.34,895.489z
		"/>
	<path id="path6549_1_" fill="#969696" d="M85.056,891.168h1.332v-2.4h1.766v2.4h1.595v1.315h-1.595v4.275
		c0,0.729,0.062,1.102,0.853,1.102c0.247,0,0.495,0,0.743-0.061v1.363c-0.386,0.031-0.758,0.094-1.146,0.094
		c-1.843,0-2.184-0.713-2.215-2.045v-4.724h-1.332V891.168z"/>
	<path id="path6551_1_" fill="#969696" d="M97.727,897.395c0,0.432,0.093,0.605,0.418,0.605c0.107,0,0.248,0,0.433-0.031v1.223
		c-0.264,0.093-0.821,0.201-1.115,0.201c-0.713,0-1.224-0.247-1.363-0.976c-0.698,0.682-1.829,0.976-2.773,0.976
		c-1.44,0-2.741-0.774-2.741-2.339c0-1.998,1.595-2.323,3.082-2.493c1.271-0.234,2.401-0.093,2.401-1.131
		c0-0.914-0.944-1.084-1.658-1.084c-0.991,0-1.688,0.402-1.765,1.268h-1.767c0.124-2.058,1.875-2.664,3.64-2.664
		c1.564,0,3.206,0.638,3.206,2.323L97.727,897.395L97.727,897.395z M95.961,895.165c-0.542,0.356-1.395,0.34-2.168,0.48
		c-0.759,0.124-1.441,0.403-1.441,1.333c0,0.79,1.007,1.022,1.626,1.022c0.774,0,1.983-0.403,1.983-1.519V895.165L95.961,895.165z"
		/>
	<path id="path6553_1_" fill="#969696" d="M98.828,891.168h1.332v-2.4h1.766v2.4h1.595v1.315h-1.595v4.275
		c0,0.729,0.062,1.102,0.852,1.102c0.249,0,0.496,0,0.743-0.061v1.363c-0.387,0.031-0.758,0.094-1.146,0.094
		c-1.844,0-2.185-0.713-2.215-2.045v-4.724h-1.332V891.168z"/>
	<path id="path6555_1_" fill="#969696" d="M106.171,895.629c0,1.255,0.682,2.371,2.153,2.371c1.023,0,1.642-0.45,1.952-1.333h1.673
		c-0.387,1.751-1.875,2.726-3.625,2.726c-2.509,0-3.919-1.75-3.919-4.213c0-2.277,1.487-4.229,3.873-4.229
		c2.525,0,4.074,2.277,3.78,4.678H106.171z M110.292,894.468c-0.062-1.115-0.821-2.122-2.014-2.122c-1.224,0-2.06,0.927-2.106,2.122
		H110.292z"/>
	<path id="path6557_1_" fill="#969696" d="M113.406,891.168h1.673v1.178l0.031,0.031c0.526-0.883,1.441-1.425,2.494-1.425
		c1.734,0,2.834,0.928,2.834,2.727v5.498h-1.766v-5.034c-0.032-1.254-0.527-1.796-1.565-1.796c-1.177,0-1.936,0.927-1.936,2.105
		v4.725h-1.766L113.406,891.168L113.406,891.168z"/>
	<path id="path6559_1_" fill="#969696" d="M126.854,888.117h1.937v11.059h-1.937V888.117z"/>
	<path id="path6561_1_" fill="#969696" d="M132.244,896.605c0.093,1.022,0.868,1.395,1.813,1.395c0.666,0,1.827-0.137,1.781-1.054
		c-0.046-0.929-1.332-1.038-2.618-1.332c-1.301-0.279-2.571-0.744-2.571-2.368c0-1.751,1.89-2.292,3.346-2.292
		c1.642,0,3.128,0.681,3.346,2.461h-1.844c-0.155-0.836-0.852-1.069-1.626-1.069c-0.511,0-1.456,0.125-1.456,0.821
		c0,0.868,1.301,0.992,2.603,1.285c1.285,0.295,2.587,0.76,2.587,2.339c0,1.906-1.921,2.603-3.579,2.603
		c-2.013,0-3.516-0.898-3.546-2.787L132.244,896.605L132.244,896.605z"/>
	<path id="path6563_1_" fill="#969696" d="M138.999,888.117h1.767v11.059h-1.767V888.117z"/>
	<path id="path6565_1_" fill="#969696" d="M149.394,897.395c0,0.432,0.092,0.605,0.418,0.605c0.108,0,0.248,0,0.433-0.031v1.223
		c-0.263,0.093-0.821,0.201-1.115,0.201c-0.713,0-1.224-0.247-1.363-0.976c-0.697,0.682-1.829,0.976-2.773,0.976
		c-1.44,0-2.742-0.774-2.742-2.339c0-1.998,1.596-2.323,3.083-2.493c1.271-0.234,2.401-0.093,2.401-1.131
		c0-0.914-0.945-1.084-1.657-1.084c-0.991,0-1.688,0.402-1.766,1.268h-1.766c0.123-2.058,1.874-2.664,3.64-2.664
		c1.564,0,3.206,0.638,3.206,2.323L149.394,897.395L149.394,897.395z M147.627,895.165c-0.542,0.356-1.394,0.34-2.168,0.48
		c-0.759,0.124-1.44,0.403-1.44,1.333c0,0.79,1.007,1.022,1.626,1.022c0.774,0,1.983-0.403,1.983-1.519V895.165L147.627,895.165z"/>
	<path id="path6567_1_" fill="#969696" d="M151.3,891.168h1.673v1.178l0.03,0.031c0.526-0.883,1.44-1.425,2.494-1.425
		c1.734,0,2.834,0.928,2.834,2.727v5.498h-1.766v-5.034c-0.032-1.254-0.526-1.796-1.565-1.796c-1.177,0-1.936,0.927-1.936,2.105
		v4.725h-1.766L151.3,891.168L151.3,891.168z"/>
	<path id="path6569_1_" fill="#969696" d="M167.736,899.176h-1.673v-1.084h-0.031c-0.464,0.915-1.472,1.299-2.478,1.299
		c-2.525,0-3.749-1.874-3.749-4.275c0-2.896,1.719-4.166,3.47-4.166c1.007,0,2.122,0.372,2.665,1.254h0.03v-4.091h1.767
		L167.736,899.176L167.736,899.176z M163.787,898c1.58,0,2.246-1.441,2.246-2.835c0-1.766-0.852-2.818-2.215-2.818
		c-1.657,0-2.246,1.473-2.246,2.913C161.571,896.637,162.253,898,163.787,898z"/>
</g>
</svg>
